<svg id="visual" viewBox="0 0 1920 1080" width="1920" height="1080" xmlns="http://www.w3.org/2000/svg" xmlns:xlink="http://www.w3.org/1999/xlink" version="1.1"><rect x="0" y="0" width="1920" height="1080" fill="#10924B"></rect><path d="M1376 1080L1398.8 1057.5C1421.7 1035 1467.3 990 1488.5 945C1509.7 900 1506.3 855 1493 810C1479.7 765 1456.3 720 1461.5 675C1466.7 630 1500.3 585 1487.5 540C1474.7 495 1415.3 450 1377 405C1338.7 360 1321.3 315 1344 270C1366.7 225 1429.3 180 1443.8 135C1458.3 90 1424.7 45 1407.8 22.5L1391 0L1920 0L1920 22.5C1920 45 1920 90 1920 135C1920 180 1920 225 1920 270C1920 315 1920 360 1920 405C1920 450 1920 495 1920 540C1920 585 1920 630 1920 675C1920 720 1920 765 1920 810C1920 855 1920 900 1920 945C1920 990 1920 1035 1920 1057.5L1920 1080Z" fill="#10924b"></path><path d="M1563 1080L1566.2 1057.5C1569.3 1035 1575.7 990 1581 945C1586.3 900 1590.7 855 1567 810C1543.3 765 1491.7 720 1493 675C1494.3 630 1548.7 585 1548.3 540C1548 495 1493 450 1459.7 405C1426.3 360 1414.7 315 1430.5 270C1446.3 225 1489.7 180 1514.7 135C1539.7 90 1546.3 45 1549.7 22.5L1553 0L1920 0L1920 22.5C1920 45 1920 90 1920 135C1920 180 1920 225 1920 270C1920 315 1920 360 1920 405C1920 450 1920 495 1920 540C1920 585 1920 630 1920 675C1920 720 1920 765 1920 810C1920 855 1920 900 1920 945C1920 990 1920 1035 1920 1057.5L1920 1080Z" fill="#03a84c"></path><path d="M1691 1080L1667.5 1057.5C1644 1035 1597 990 1594.5 945C1592 900 1634 855 1626.8 810C1619.7 765 1563.3 720 1562.8 675C1562.3 630 1617.7 585 1645 540C1672.3 495 1671.7 450 1658 405C1644.3 360 1617.7 315 1600 270C1582.3 225 1573.7 180 1584.7 135C1595.7 90 1626.3 45 1641.7 22.5L1657 0L1920 0L1920 22.5C1920 45 1920 90 1920 135C1920 180 1920 225 1920 270C1920 315 1920 360 1920 405C1920 450 1920 495 1920 540C1920 585 1920 630 1920 675C1920 720 1920 765 1920 810C1920 855 1920 900 1920 945C1920 990 1920 1035 1920 1057.5L1920 1080Z" fill="#00be4b"></path><path d="M1770 1080L1746.8 1057.5C1723.7 1035 1677.3 990 1654 945C1630.7 900 1630.3 855 1650.2 810C1670 765 1710 720 1715 675C1720 630 1690 585 1678.7 540C1667.3 495 1674.7 450 1680.8 405C1687 360 1692 315 1693.7 270C1695.3 225 1693.7 180 1687.8 135C1682 90 1672 45 1667 22.5L1662 0L1920 0L1920 22.5C1920 45 1920 90 1920 135C1920 180 1920 225 1920 270C1920 315 1920 360 1920 405C1920 450 1920 495 1920 540C1920 585 1920 630 1920 675C1920 720 1920 765 1920 810C1920 855 1920 900 1920 945C1920 990 1920 1035 1920 1057.5L1920 1080Z" fill="#03d447"></path><path d="M1826 1080L1825.7 1057.5C1825.3 1035 1824.7 990 1829 945C1833.3 900 1842.7 855 1846.8 810C1851 765 1850 720 1843.2 675C1836.3 630 1823.7 585 1807.8 540C1792 495 1773 450 1767.7 405C1762.3 360 1770.7 315 1773 270C1775.3 225 1771.7 180 1778.8 135C1786 90 1804 45 1813 22.5L1822 0L1920 0L1920 22.5C1920 45 1920 90 1920 135C1920 180 1920 225 1920 270C1920 315 1920 360 1920 405C1920 450 1920 495 1920 540C1920 585 1920 630 1920 675C1920 720 1920 765 1920 810C1920 855 1920 900 1920 945C1920 990 1920 1035 1920 1057.5L1920 1080Z" fill="#17eb3f"></path></svg>