<svg id="visual" viewBox="0 0 1920 1080" width="1920" height="1080" xmlns="http://www.w3.org/2000/svg" xmlns:xlink="http://www.w3.org/1999/xlink" version="1.1"><path d="M0 55L160 103.7C320 152.3 640 249.7 960 357.7C1280 465.7 1600 584.3 1760 643.7L1920 703L1920 0L1760 0C1600 0 1280 0 960 0C640 0 320 0 160 0L0 0Z" fill="#a81d31"></path><path d="M0 195L160 234.7C320 274.3 640 353.7 960 442C1280 530.3 1600 627.7 1760 676.3L1920 725L1920 701L1760 641.7C1600 582.3 1280 463.7 960 355.7C640 247.7 320 150.3 160 101.7L0 53Z" fill="#da283e"></path><path d="M0 239L160 291.2C320 343.3 640 447.7 960 546.7C1280 645.7 1600 739.3 1760 786.2L1920 833L1920 723L1760 674.3C1600 625.7 1280 528.3 960 440C640 351.7 320 272.3 160 232.7L0 193Z" fill="#f2606b"></path><path d="M0 530L160 569.7C320 609.3 640 688.7 960 740.8C1280 793 1600 818 1760 830.5L1920 843L1920 831L1760 784.2C1600 737.3 1280 643.7 960 544.7C640 445.7 320 341.3 160 289.2L0 237Z" fill="#f7767f"></path><path d="M0 552L160 600.5C320 649 640 746 960 798.2C1280 850.3 1600 857.7 1760 861.3L1920 865L1920 841L1760 828.5C1600 816 1280 791 960 738.8C640 686.7 320 607.3 160 567.7L0 528Z" fill="#f2606b"></path><path d="M0 887L160 894.2C320 901.3 640 915.7 960 933.7C1280 951.7 1600 973.3 1760 984.2L1920 995L1920 863L1760 859.3C1600 855.7 1280 848.3 960 796.2C640 744 320 647 160 598.5L0 550Z" fill="#da283e"></path><path d="M0 1081L160 1081C320 1081 640 1081 960 1081C1280 1081 1600 1081 1760 1081L1920 1081L1920 993L1760 982.2C1600 971.3 1280 949.7 960 931.7C640 913.7 320 899.3 160 892.2L0 885Z" fill="#a81d31"></path></svg>