<svg id="visual" viewBox="0 0 1920 1080" width="1920" height="1080" xmlns="http://www.w3.org/2000/svg" xmlns:xlink="http://www.w3.org/1999/xlink" version="1.1"><rect x="0" y="0" width="1920" height="1080" fill="#10924B"></rect><defs><linearGradient id="grad1_0" x1="43.8%" y1="100%" x2="100%" y2="0%"><stop offset="14.444444444444446%" stop-color="#17eb3f" stop-opacity="1"></stop><stop offset="85.55555555555554%" stop-color="#17eb3f" stop-opacity="1"></stop></linearGradient></defs><defs><linearGradient id="grad1_1" x1="43.8%" y1="100%" x2="100%" y2="0%"><stop offset="14.444444444444446%" stop-color="#17eb3f" stop-opacity="1"></stop><stop offset="85.55555555555554%" stop-color="#00d447" stop-opacity="1"></stop></linearGradient></defs><defs><linearGradient id="grad1_2" x1="43.8%" y1="100%" x2="100%" y2="0%"><stop offset="14.444444444444446%" stop-color="#00be4b" stop-opacity="1"></stop><stop offset="85.55555555555554%" stop-color="#00d447" stop-opacity="1"></stop></linearGradient></defs><defs><linearGradient id="grad1_3" x1="43.8%" y1="100%" x2="100%" y2="0%"><stop offset="14.444444444444446%" stop-color="#00be4b" stop-opacity="1"></stop><stop offset="85.55555555555554%" stop-color="#00a84c" stop-opacity="1"></stop></linearGradient></defs><defs><linearGradient id="grad1_4" x1="43.8%" y1="100%" x2="100%" y2="0%"><stop offset="14.444444444444446%" stop-color="#10924b" stop-opacity="1"></stop><stop offset="85.55555555555554%" stop-color="#00a84c" stop-opacity="1"></stop></linearGradient></defs><defs><linearGradient id="grad2_0" x1="0%" y1="100%" x2="56.3%" y2="0%"><stop offset="14.444444444444446%" stop-color="#17eb3f" stop-opacity="1"></stop><stop offset="85.55555555555554%" stop-color="#17eb3f" stop-opacity="1"></stop></linearGradient></defs><defs><linearGradient id="grad2_1" x1="0%" y1="100%" x2="56.3%" y2="0%"><stop offset="14.444444444444446%" stop-color="#00d447" stop-opacity="1"></stop><stop offset="85.55555555555554%" stop-color="#17eb3f" stop-opacity="1"></stop></linearGradient></defs><defs><linearGradient id="grad2_2" x1="0%" y1="100%" x2="56.3%" y2="0%"><stop offset="14.444444444444446%" stop-color="#00d447" stop-opacity="1"></stop><stop offset="85.55555555555554%" stop-color="#00be4b" stop-opacity="1"></stop></linearGradient></defs><defs><linearGradient id="grad2_3" x1="0%" y1="100%" x2="56.3%" y2="0%"><stop offset="14.444444444444446%" stop-color="#00a84c" stop-opacity="1"></stop><stop offset="85.55555555555554%" stop-color="#00be4b" stop-opacity="1"></stop></linearGradient></defs><defs><linearGradient id="grad2_4" x1="0%" y1="100%" x2="56.3%" y2="0%"><stop offset="14.444444444444446%" stop-color="#00a84c" stop-opacity="1"></stop><stop offset="85.55555555555554%" stop-color="#10924b" stop-opacity="1"></stop></linearGradient></defs><g transform="translate(1920, 1080)"><path d="M-972 0C-938.1 -127.5 -904.1 -254.9 -836.1 -346.3C-768.1 -437.7 -666 -493 -590.4 -590.4C-514.9 -687.9 -465.9 -827.4 -372 -898C-278 -968.6 -139 -970.3 0 -972L0 0Z" fill="#089d4c"></path><path d="M-777.6 0C-750.5 -102 -723.3 -204 -668.9 -277.1C-614.5 -350.2 -532.8 -394.4 -472.3 -472.3C-411.9 -550.3 -372.8 -661.9 -297.6 -718.4C-222.4 -774.9 -111.2 -776.3 0 -777.6L0 0Z" fill="#00b34c"></path><path d="M-583.2 0C-562.8 -76.5 -542.5 -153 -501.7 -207.8C-460.9 -262.6 -399.6 -295.8 -354.3 -354.3C-308.9 -412.7 -279.6 -496.4 -223.2 -538.8C-166.8 -581.2 -83.4 -582.2 0 -583.2L0 0Z" fill="#00c949"></path><path d="M-388.8 0C-375.2 -51 -361.7 -102 -334.4 -138.5C-307.2 -175.1 -266.4 -197.2 -236.2 -236.2C-206 -275.1 -186.4 -331 -148.8 -359.2C-111.2 -387.5 -55.6 -388.1 0 -388.8L0 0Z" fill="#09e043"></path><path d="M-194.4 0C-187.6 -25.5 -180.8 -51 -167.2 -69.3C-153.6 -87.5 -133.2 -98.6 -118.1 -118.1C-103 -137.6 -93.2 -165.5 -74.4 -179.6C-55.6 -193.7 -27.8 -194.1 0 -194.4L0 0Z" fill="#17eb3f"></path></g><g transform="translate(0, 0)"><path d="M972 0C956.8 125.8 941.7 251.5 898 372C854.3 492.4 782.2 607.6 685.9 685.9C589.6 764.2 469.3 805.7 350.9 847.2C232.6 888.7 116.3 930.4 0 972L0 0Z" fill="#089d4c"></path><path d="M777.6 0C765.5 100.6 753.3 201.2 718.4 297.6C683.5 393.9 625.7 486.1 548.7 548.7C471.7 611.4 375.4 644.5 280.7 677.8C186.1 711 93 744.3 0 777.6L0 0Z" fill="#00b34c"></path><path d="M583.2 0C574.1 75.5 565 150.9 538.8 223.2C512.6 295.5 469.3 364.6 411.5 411.5C353.8 458.5 281.6 483.4 210.6 508.3C139.6 533.2 69.8 558.2 0 583.2L0 0Z" fill="#00c949"></path><path d="M388.8 0C382.7 50.3 376.7 100.6 359.2 148.8C341.7 197 312.9 243 274.4 274.4C235.8 305.7 187.7 322.3 140.4 338.9C93 355.5 46.5 372.1 0 388.8L0 0Z" fill="#09e043"></path><path d="M194.4 0C191.4 25.2 188.3 50.3 179.6 74.4C170.9 98.5 156.4 121.5 137.2 137.2C117.9 152.8 93.9 161.1 70.2 169.4C46.5 177.7 23.3 186.1 0 194.4L0 0Z" fill="#17eb3f"></path></g></svg>