<svg id="visual" viewBox="0 0 1920 1080" width="1920" height="1080" xmlns="http://www.w3.org/2000/svg" xmlns:xlink="http://www.w3.org/1999/xlink" version="1.1"><rect x="0" y="0" width="1920" height="1080" fill="#10924B"></rect><path d="M0 890L53.3 891.8C106.7 893.7 213.3 897.3 320 900.7C426.7 904 533.3 907 640 906.2C746.7 905.3 853.3 900.7 960 885.5C1066.7 870.3 1173.3 844.7 1280 833.7C1386.7 822.7 1493.3 826.3 1600 823.3C1706.7 820.3 1813.3 810.7 1866.7 805.8L1920 801L1920 1081L1866.7 1081C1813.3 1081 1706.7 1081 1600 1081C1493.3 1081 1386.7 1081 1280 1081C1173.3 1081 1066.7 1081 960 1081C853.3 1081 746.7 1081 640 1081C533.3 1081 426.7 1081 320 1081C213.3 1081 106.7 1081 53.3 1081L0 1081Z" fill="#72ffb2"></path><path d="M0 892L53.3 909.2C106.7 926.3 213.3 960.7 320 977.7C426.7 994.7 533.3 994.3 640 988.5C746.7 982.7 853.3 971.3 960 974.5C1066.7 977.7 1173.3 995.3 1280 985.5C1386.7 975.7 1493.3 938.3 1600 924.8C1706.7 911.3 1813.3 921.7 1866.7 926.8L1920 932L1920 1081L1866.7 1081C1813.3 1081 1706.7 1081 1600 1081C1493.3 1081 1386.7 1081 1280 1081C1173.3 1081 1066.7 1081 960 1081C853.3 1081 746.7 1081 640 1081C533.3 1081 426.7 1081 320 1081C213.3 1081 106.7 1081 53.3 1081L0 1081Z" fill="#46f680"></path><path d="M0 985L53.3 982C106.7 979 213.3 973 320 982.2C426.7 991.3 533.3 1015.7 640 1028C746.7 1040.3 853.3 1040.7 960 1032C1066.7 1023.3 1173.3 1005.7 1280 999.2C1386.7 992.7 1493.3 997.3 1600 1005.8C1706.7 1014.3 1813.3 1026.7 1866.7 1032.8L1920 1039L1920 1081L1866.7 1081C1813.3 1081 1706.7 1081 1600 1081C1493.3 1081 1386.7 1081 1280 1081C1173.3 1081 1066.7 1081 960 1081C853.3 1081 746.7 1081 640 1081C533.3 1081 426.7 1081 320 1081C213.3 1081 106.7 1081 53.3 1081L0 1081Z" fill="#17eb3f"></path></svg>