<svg id="visual" viewBox="0 0 1920 1080" width="1920" height="1080" xmlns="http://www.w3.org/2000/svg" xmlns:xlink="http://www.w3.org/1999/xlink" version="1.1"><rect x="0" y="0" width="1920" height="1080" fill="#10924B"></rect><path d="M0 601L45.7 588.2C91.3 575.3 182.7 549.7 274.2 533C365.7 516.3 457.3 508.7 548.8 517.3C640.3 526 731.7 551 823 531.2C914.3 511.3 1005.7 446.7 1097 454.8C1188.3 463 1279.7 544 1371.2 563C1462.7 582 1554.3 539 1645.8 531.8C1737.3 524.7 1828.7 553.3 1874.3 567.7L1920 582L1920 1081L1874.3 1081C1828.7 1081 1737.3 1081 1645.8 1081C1554.3 1081 1462.7 1081 1371.2 1081C1279.7 1081 1188.3 1081 1097 1081C1005.7 1081 914.3 1081 823 1081C731.7 1081 640.3 1081 548.8 1081C457.3 1081 365.7 1081 274.2 1081C182.7 1081 91.3 1081 45.7 1081L0 1081Z" fill="#72ffb2"></path><path d="M0 627L45.7 648.3C91.3 669.7 182.7 712.3 274.2 715.3C365.7 718.3 457.3 681.7 548.8 658.3C640.3 635 731.7 625 823 642.2C914.3 659.3 1005.7 703.7 1097 725.2C1188.3 746.7 1279.7 745.3 1371.2 721.7C1462.7 698 1554.3 652 1645.8 620.3C1737.3 588.7 1828.7 571.3 1874.3 562.7L1920 554L1920 1081L1874.3 1081C1828.7 1081 1737.3 1081 1645.8 1081C1554.3 1081 1462.7 1081 1371.2 1081C1279.7 1081 1188.3 1081 1097 1081C1005.7 1081 914.3 1081 823 1081C731.7 1081 640.3 1081 548.8 1081C457.3 1081 365.7 1081 274.2 1081C182.7 1081 91.3 1081 45.7 1081L0 1081Z" fill="#54f992"></path><path d="M0 729L45.7 734.2C91.3 739.3 182.7 749.7 274.2 772.3C365.7 795 457.3 830 548.8 842C640.3 854 731.7 843 823 822.2C914.3 801.3 1005.7 770.7 1097 778.8C1188.3 787 1279.7 834 1371.2 849.8C1462.7 865.7 1554.3 850.3 1645.8 840.3C1737.3 830.3 1828.7 825.7 1874.3 823.3L1920 821L1920 1081L1874.3 1081C1828.7 1081 1737.3 1081 1645.8 1081C1554.3 1081 1462.7 1081 1371.2 1081C1279.7 1081 1188.3 1081 1097 1081C1005.7 1081 914.3 1081 823 1081C731.7 1081 640.3 1081 548.8 1081C457.3 1081 365.7 1081 274.2 1081C182.7 1081 91.3 1081 45.7 1081L0 1081Z" fill="#38f36d"></path><path d="M0 841L45.7 853.5C91.3 866 182.7 891 274.2 903.8C365.7 916.7 457.3 917.3 548.8 925.7C640.3 934 731.7 950 823 934.2C914.3 918.3 1005.7 870.7 1097 869.7C1188.3 868.7 1279.7 914.3 1371.2 934.3C1462.7 954.3 1554.3 948.7 1645.8 938C1737.3 927.3 1828.7 911.7 1874.3 903.8L1920 896L1920 1081L1874.3 1081C1828.7 1081 1737.3 1081 1645.8 1081C1554.3 1081 1462.7 1081 1371.2 1081C1279.7 1081 1188.3 1081 1097 1081C1005.7 1081 914.3 1081 823 1081C731.7 1081 640.3 1081 548.8 1081C457.3 1081 365.7 1081 274.2 1081C182.7 1081 91.3 1081 45.7 1081L0 1081Z" fill="#17eb3f"></path></svg>